<svg xmlns="http://www.w3.org/2000/svg" viewBox="0 0 48 48" id="setting-mobile"><g data-name="Setting mobile"><path fill="#9fdbf3" d="M11 7h26v34H11z"></path><path fill="#b2e5fb" d="M14 7v9a23 23 0 0 0 23 23c.1 0 0 1.2 0-32Z"></path><path fill="#374f68" d="M37 3v4H11V3a2 2 0 0 1 2-2h22a2 2 0 0 1 2 2Z"></path><path fill="#425b72" d="M37 3v2H18a4 4 0 0 1-4-4h21a2 2 0 0 1 2 2Z"></path><path fill="#374f68" d="M37 41v4a2 2 0 0 1-2 2H13a2 2 0 0 1-2-2v-4Z"></path><path fill="#425b72" d="M37 41v4H18a4 4 0 0 1-4-4Z"></path><path fill="#edebf2" d="M27 5h-6a1 1 0 0 1 0-2h6a1 1 0 0 1 0 2zm-2 40h-2a1 1 0 0 1 0-2h2a1 1 0 0 1 0 2zM17 5a1 1 0 0 1-.38-1.92A1 1 0 1 1 17 5z"></path><path fill="#db5669" d="M33 25.5v-3l-2.31-.58a7.59 7.59 0 0 0-.49-1.17l1.22-2.05-2.12-2.12-2.05 1.22a7.59 7.59 0 0 0-1.17-.49L25.5 15h-3l-.58 2.31a7.59 7.59 0 0 0-1.17.49l-2.05-1.22-2.12 2.12 1.22 2.05a7.59 7.59 0 0 0-.49 1.17L15 22.5v3l2.31.58a7.59 7.59 0 0 0 .49 1.17l-1.22 2.05 2.12 2.12 2.05-1.22a7.59 7.59 0 0 0 1.17.49L22.5 33h3l.58-2.31a7.59 7.59 0 0 0 1.17-.49l2.05 1.22 2.12-2.12-1.22-2.05a7.59 7.59 0 0 0 .49-1.17ZM24 27a3 3 0 1 1 3-3 3 3 0 0 1-3 3Z"></path><path fill="#f26674" d="M33 25.5v-3l-2.31-.58a7.59 7.59 0 0 0-.49-1.17l1.22-2.05-2.12-2.12-2.05 1.22a7.59 7.59 0 0 0-1.17-.49L25.5 15h-3l-.58 2.31c-1.64.52-.65.8-2.43-.26A9 9 0 0 0 26 30.94c.11-.47-.15 0 1.23-.74l2.05 1.22 2.12-2.12-1.2-2.05a7.59 7.59 0 0 0 .49-1.17ZM24 27a3 3 0 1 1 3-3 3 3 0 0 1-3 3Z"></path><path d="M35 0H13a3 3 0 0 0-3 3v42a3 3 0 0 0 3 3h22a3 3 0 0 0 3-3V3a3 3 0 0 0-3-3ZM12 8h24v32H12Zm0-5a1 1 0 0 1 1-1h22a1 1 0 0 1 1 1v3H12Zm24 42a1 1 0 0 1-1 1H13a1 1 0 0 1-1-1v-3h24Z"></path><path d="M27 3h-6a1 1 0 0 0 0 2h6a1 1 0 0 0 0-2zm-4 42h2a1 1 0 0 0 0-2h-2a1 1 0 0 0 0 2zM17.92 3.62A1 1 0 1 0 17 5a1 1 0 0 0 .92-1.38zM24 20a4 4 0 1 0 4 4 4 4 0 0 0-4-4zm0 6a2 2 0 1 1 2-2 2 2 0 0 1-2 2z"></path><path d="M33.24 21.53c-2.08-.52-1.74-.35-1.91-.73 1-1.58 1.47-2.15.8-2.81-2.16-2.16-2.49-2.78-3.34-2.27-1.84 1.1-1.49 1-1.87.83-.45-1.78-.48-2.55-1.42-2.55-3.06 0-3.73-.2-4 .76-.52 2.08-.35 1.74-.73 1.91-1.58-1-2.15-1.47-2.81-.8-2.16 2.16-2.78 2.5-2.27 3.34 1.11 1.85 1 1.48.83 1.87-1.78.45-2.55.48-2.55 1.42 0 3.06-.2 3.73.76 4 2.08.52 1.74.35 1.91.73-1 1.58-1.47 2.15-.8 2.81 2.16 2.16 2.5 2.78 3.34 2.27 1.84-1.1 1.49-1 1.87-.83.45 1.78.48 2.55 1.42 2.55 3.05 0 3.73.2 4-.76.52-2.08.35-1.74.73-1.91 1.58 1 2.15 1.47 2.81.8 2.16-2.16 2.78-2.5 2.27-3.34-1.1-1.84-1-1.49-.83-1.87 1.78-.45 2.55-.48 2.55-1.42 0-3.06.2-3.76-.76-4ZM32 24.72c-1.67.42-2.07.41-2.27 1.06-.59 1.9-1 .93.44 3.37l-1 1c-1.49-.9-1.76-1.18-2.36-.86-1.76.92-1.39 0-2.07 2.69h-1.46c-.42-1.67-.41-2.07-1.06-2.27-1.9-.59-.92-1-3.37.44l-1-1c.9-1.49 1.18-1.76.86-2.36-.92-1.76 0-1.39-2.69-2.07v-1.44c1.64-.41 2.06-.4 2.27-1.06.59-1.9 1-.92-.44-3.37l1-1c1.48.89 1.76 1.18 2.36.86 1.76-.93 1.39 0 2.07-2.69h1.44c.42 1.67.41 2.07 1.06 2.27 1.9.59.92 1 3.37-.44l1 1c-.87 1.45-1.18 1.74-.86 2.36.92 1.76 0 1.39 2.69 2.07Z"></path></g></svg>